<svg xmlns="http://www.w3.org/2000/svg" width="20" height="20" viewBox="0 0 20 20" fill="none">
<g clip-path="url(#clip0_3_52)">
<path d="M10 0.833252C8.187 0.833252 6.41472 1.37087 4.90727 2.37811C3.39982 3.38536 2.22491 4.817 1.5311 6.49199C0.8373 8.16698 0.655769 10.0101 1.00947 11.7882C1.36317 13.5664 2.23621 15.1998 3.51819 16.4817C4.80017 17.7637 6.43351 18.6368 8.21167 18.9904C9.98983 19.3441 11.8329 19.1626 13.5079 18.4688C15.1829 17.775 16.6146 16.6001 17.6218 15.0926C18.6291 13.5852 19.1667 11.8129 19.1667 9.99992C19.1638 7.56965 18.1971 5.23974 16.4786 3.52127C14.7602 1.80281 12.4303 0.836119 10 0.833252ZM10 17.4999C8.51664 17.4999 7.06659 17.0601 5.83322 16.2359C4.59985 15.4118 3.63856 14.2405 3.0709 12.87C2.50325 11.4996 2.35472 9.9916 2.64411 8.53674C2.9335 7.08188 3.6478 5.74551 4.6967 4.69662C5.74559 3.64772 7.08196 2.93342 8.53682 2.64403C9.99168 2.35464 11.4997 2.50316 12.8701 3.07082C14.2406 3.63848 15.4119 4.59977 16.236 5.83314C17.0601 7.06651 17.5 8.51656 17.5 9.99992C17.4976 11.9883 16.7066 13.8945 15.3006 15.3005C13.8946 16.7065 11.9884 17.4975 10 17.4999Z" fill="currentColor"/>
<path d="M10.8333 9.65508V5.00008C10.8333 4.77907 10.7455 4.56711 10.5893 4.41083C10.433 4.25455 10.221 4.16675 10 4.16675C9.77898 4.16675 9.56702 4.25455 9.41074 4.41083C9.25446 4.56711 9.16666 4.77907 9.16666 5.00008V10.0001C9.16671 10.2211 9.25454 10.433 9.41083 10.5892L11.9108 13.0892C12.068 13.241 12.2785 13.325 12.497 13.3231C12.7155 13.3212 12.9245 13.2336 13.079 13.0791C13.2335 12.9246 13.3212 12.7156 13.3231 12.4971C13.325 12.2786 13.241 12.0681 13.0892 11.9109L10.8333 9.65508Z" fill="currentColor"/>
</g>
<defs>
<clipPath id="clip0_3_52">
<rect width="20" height="20" fill="currentColor"/>
</clipPath>
</defs>
</svg>