<svg width="15.000000" height="20.000000" viewBox="0 0 15 20" fill="none" xmlns="http://www.w3.org/2000/svg" xmlns:xlink="http://www.w3.org/1999/xlink">
	<path id="Vector" d="M7 0C2.96 0 -0.32 3.33 -0.32 7.44C-0.32 9.73 0.84 12.52 3.13 15.72C4.81 18.06 6.46 19.73 6.53 19.8C6.66 19.93 6.83 20 7 20C7.16 20 7.32 19.93 7.45 19.81C7.52 19.75 9.17 18.14 10.85 15.83C13.14 12.68 14.31 9.86 14.31 7.44C14.31 3.33 11.03 0 7 0ZM7 10.65C5.02 10.65 3.42 9.05 3.42 7.08C3.42 5.11 5.02 3.5 7 3.5C8.97 3.5 10.57 5.11 10.57 7.08C10.57 9.05 8.97 10.65 7 10.65Z" fill="currentColor" fill-opacity="1.000000" fill-rule="nonzero"/>
</svg>
