<svg xmlns="http://www.w3.org/2000/svg" width="20" height="20" viewBox="0 0 20 20" fill="none">
<path fill-rule="evenodd" clip-rule="evenodd" d="M18.0393 2.69805C18.2758 2.89881 18.3813 3.21431 18.3129 3.5169L15.3963 16.4335C15.3326 16.7153 15.1277 16.9439 14.8546 17.0379C14.5815 17.1319 14.2792 17.0779 14.0557 16.8949L10.2442 13.7765L8.64517 16.6547C8.4815 16.9494 8.15642 17.1164 7.82157 17.0779C7.48672 17.0394 7.20802 16.803 7.11542 16.4789L5.58834 11.1342L1.91993 10.4005C1.55901 10.3283 1.2882 10.0279 1.25369 9.66144C1.21919 9.29502 1.42918 8.94936 1.77027 8.81102L17.1869 2.56107C17.4744 2.44452 17.8028 2.4973 18.0393 2.69805ZM4.97241 9.31136L6.41345 9.59952C6.71943 9.66069 6.96558 9.88769 7.05129 10.1878L8.16527 14.0866L9.27158 12.0953C9.3915 11.8794 9.60092 11.7279 9.8435 11.6815C10.086 11.6351 10.3366 11.6987 10.5278 11.855L14.0675 14.7512L16.3361 4.70441L4.97241 9.31136Z" fill="currentColor"/>
<path fill-rule="evenodd" clip-rule="evenodd" d="M17.944 4.03843C18.3094 3.8084 18.4386 3.33743 18.2417 2.95321C18.0448 2.56898 17.587 2.39875 17.1869 2.56096L1.77027 8.81099C1.42918 8.94924 1.21919 9.29491 1.25369 9.66133C1.2882 10.0278 1.55901 10.3282 1.91993 10.4004L6.08659 11.2337C6.29594 11.2756 6.51337 11.2355 6.69403 11.1217L17.944 4.03843Z" fill="currentColor"/>
<path fill-rule="evenodd" clip-rule="evenodd" d="M18.3129 3.51669C18.398 3.1397 18.2128 2.75365 17.8654 2.58419C17.5181 2.41472 17.0998 2.50632 16.8551 2.80544L9.3551 11.9721C9.0636 12.3283 9.1161 12.8533 9.47235 13.1448L14.0557 16.8948C14.2792 17.0776 14.5815 17.1318 14.8546 17.0378C15.1277 16.9438 15.3326 16.7151 15.3963 16.4334L18.3129 3.51669Z" fill="currentColor"/>
</svg>