<svg width="58" height="58" viewBox="0 0 58 58" fill="none" xmlns="http://www.w3.org/2000/svg">
<path d="M45.7364 3.71944C45.4291 3.60539 45.085 3.75863 44.9682 4.06627L43.2958 8.49316C43.1794 8.80119 43.3349 9.14492 43.6426 9.2613C43.9545 9.37805 44.2958 9.21912 44.4107 8.91447L46.0832 4.48758C46.1996 4.17955 46.044 3.83583 45.7364 3.71944Z" fill="white"/>
<path d="M47.0818 11.2651L51.1696 7.59045C51.4144 7.37048 51.4342 6.99378 51.2142 6.74899C50.9935 6.5038 50.6172 6.48402 50.3728 6.70437L46.285 10.379C46.0402 10.599 46.0204 10.9757 46.2403 11.2205C46.4593 11.464 46.8355 11.4863 47.0818 11.2651Z" fill="white"/>
<path d="M49.3909 13.3603C49.4297 13.661 49.6861 13.8806 49.9813 13.8806C50.0066 13.8806 50.0322 13.879 50.0578 13.8759C51.5816 13.6808 53.0939 13.178 54.4307 12.4223C54.717 12.2605 54.8183 11.897 54.6561 11.6103C54.494 11.3228 54.1301 11.2223 53.8442 11.3849C52.6403 12.0653 51.2786 12.5177 49.9065 12.6934C49.5798 12.7353 49.3494 13.0341 49.3909 13.3603Z" fill="white"/>
<path d="M30.3823 26.8157C34.0656 25.945 36.3458 22.2536 35.4753 18.5707C34.6047 14.8878 30.913 12.608 27.2297 13.4787C23.5464 14.3494 21.2662 18.0408 22.1367 21.7237C23.0073 25.4066 26.699 27.6863 30.3823 26.8157Z" fill="white"/>
<path d="M20.6758 52.5433C22.1976 53.1289 24.0102 53.3795 25.5768 53.6518C34.3584 55.1782 43.0081 53.7733 45.5438 52.5268C46.4189 52.0966 46.1556 50.7603 45.1823 50.7019C43.2075 50.5835 41.2213 50.6882 39.2672 50.9964C47.1427 47.1321 52.4154 38.9973 52.8661 30.7844C53.7619 14.6216 38.7183 3.52156 24.225 6.18531C4.09456 7.86041 -0.885989 31.6479 6.5123 42.5401C9.48116 46.911 14.9683 51.1127 20.6758 52.5433ZM42.7576 47.3943C33.5383 54.6505 21.439 52.8137 13.977 46.3866C13.2305 37.9442 19.9268 30.6245 28.428 30.6245C37.4306 30.6245 44.1699 38.7589 42.7576 47.3943ZM10.8997 15.7913C24.1176 -1.71546 52.8914 8.79378 51.6759 30.7188C51.6509 30.8102 51.5749 39.4019 44.0781 46.2695C44.7355 37.0519 37.4209 29.4327 28.428 29.4327C19.7835 29.4327 12.6809 36.4776 12.7322 45.2298C4.8577 37.3632 4.53688 24.2195 10.8997 15.7913Z" fill="white"/>
</svg>
