<svg width="58" height="58" viewBox="0 0 58 58" fill="none" xmlns="http://www.w3.org/2000/svg">
<path d="M24.4708 11.2777C24.4809 11.2983 24.4921 11.3183 24.5044 11.3377C24.4969 11.3159 24.4855 11.2956 24.4708 11.2777Z" fill="white"/>
<path d="M24.5422 11.4025C24.5555 11.4286 24.5719 11.453 24.5911 11.4751C24.5618 11.4236 24.5448 11.4005 24.5422 11.4025Z" fill="white"/>
<path d="M24.453 10.4431C24.4431 10.4586 24.4354 10.4755 24.4301 10.4931C24.4484 10.4612 24.4593 10.4391 24.453 10.4431Z" fill="white"/>
<path d="M23.9791 12.9343C23.9736 12.9438 23.9686 12.9535 23.9642 12.9635L23.9791 12.9343Z" fill="white"/>
<path d="M22.8322 23.9625C25.162 25.0825 27.769 25.4952 30.3308 25.1494C32.8926 24.8037 35.2969 23.7147 37.2464 22.0171C41.0993 18.4915 41.1692 12.5181 38.7803 8.12455C35.7554 2.56108 28.6531 1.60382 22.9686 2.8692C22.8947 2.88557 22.8257 2.91939 22.7675 2.96783C22.7093 3.01626 22.6635 3.07792 22.634 3.14765C22.6044 3.21739 22.592 3.29317 22.5977 3.36868C22.6034 3.4442 22.6271 3.51725 22.6668 3.58174C19.4197 4.39219 17.3099 8.44819 16.8385 11.7123C16.1195 16.6912 18.2282 21.6563 22.8322 23.9625ZM25.8741 4.22262C26.1679 4.28583 26.1636 3.86235 25.8932 3.8409C29.59 3.57749 33.7824 3.99215 36.4096 6.92429C39.785 10.6558 40.4617 17.6955 36.3802 21.1653C35.4731 19.1138 32.8417 17.6939 30.6717 18.4492C30.6292 18.1869 30.6285 17.9127 30.5606 17.6575C31.1508 17.2761 31.6483 16.7677 32.0167 16.1694C32.3851 15.571 32.6151 14.8979 32.6899 14.1993C33.0852 14.2843 33.422 13.9628 33.6598 13.6846C33.8103 13.5245 33.9261 13.335 34.0001 13.128C34.0741 12.921 34.1046 12.701 34.0897 12.4817C34.0749 12.2625 34.0149 12.0486 33.9137 11.8535C33.8125 11.6584 33.6721 11.4863 33.5013 11.3479C34.9867 10.5358 34.1718 7.87169 32.4491 8.24422C31.9186 6.85868 29.7813 6.75042 28.912 7.85868C28.6192 7.68084 28.2937 7.56366 27.9547 7.51409C27.6158 7.46452 27.2703 7.48358 26.9389 7.57013C26.6074 7.65668 26.2967 7.80896 26.0253 8.01793C25.7538 8.22689 25.5271 8.48828 25.3587 8.78656C24.9129 8.69606 24.4497 8.75375 24.0397 8.95084C23.6297 9.14794 23.2954 9.47364 23.0876 9.87833C22.8798 10.283 22.8101 10.7445 22.8889 11.1926C22.9677 11.6406 23.1907 12.0506 23.5241 12.3601C23.242 12.5662 23.0345 12.8584 22.9329 13.1927C22.8313 13.527 22.8412 13.8852 22.961 14.2134C23.0808 14.5416 23.3041 14.8219 23.5972 15.0122C23.8902 15.2024 24.2372 15.2921 24.5857 15.2679C24.8041 15.8389 25.1345 16.3603 25.5576 16.8015C25.9807 17.2426 26.4878 17.5946 27.0491 17.8367C26.913 18.4673 27.0164 19.7971 27.9513 19.5099C28.2553 20.7008 30.3562 21.0238 30.5507 19.6577C31.0016 19.4058 31.5098 19.2744 32.0263 19.276C32.5428 19.2776 33.0502 19.4122 33.4996 19.6668C33.9489 19.9215 34.3251 20.2876 34.5919 20.7298C34.8587 21.1721 35.0071 21.6756 35.0228 22.1919C28.2124 26.5362 18.3005 22.9171 17.6969 14.4423C17.3645 9.94554 20.0895 2.66417 25.8741 4.22262ZM29.0635 19.5056C28.6728 19.6359 28.5101 19.4874 28.2352 19.311C28.5381 19.0078 28.4468 18.5491 28.395 18.166C28.7349 18.1983 29.0775 18.1843 29.4136 18.1244C29.3708 18.3061 29.3694 18.495 29.4095 18.6773C29.4496 18.8596 29.5301 19.0305 29.6452 19.1774C29.4396 19.2748 29.2665 19.3963 29.0635 19.5056ZM24.0352 13.8632C23.6472 13.574 23.9063 13.0058 24.1174 12.6952C24.2676 12.7254 24.4235 12.706 24.5617 12.6398C24.4113 12.8228 24.3039 13.0372 24.2472 13.2672C24.1906 13.4972 24.1862 13.7369 24.2343 13.9688C24.164 13.9416 24.0972 13.9062 24.0352 13.8632ZM24.4048 10.5364C24.4238 10.5208 24.4545 10.3899 24.4619 10.4283C24.7034 9.95982 25.2713 10.13 25.6499 9.89826C25.5354 9.93505 25.828 9.81048 25.7628 9.84759C26.25 9.4809 26.6208 8.87403 27.2597 8.75489C27.525 8.69823 27.7986 8.69216 28.0662 8.73701C28.4505 8.85754 29.2287 9.11288 29.2751 8.48755C30.0088 8.20752 30.9827 7.89705 31.432 8.77646C31.5785 9.07124 31.8689 9.33571 32.2241 9.15535C32.2905 9.13205 32.5324 9.33534 32.3331 9.18013C32.4116 9.25303 32.5051 9.30792 32.6069 9.34098C33.1473 9.57863 32.7459 10.1135 32.4823 10.408L32.5925 10.2653C32.4441 10.4044 32.3531 10.594 32.3374 10.7968C31.6213 10.5436 30.8228 10.918 30.0883 10.6539C29.9032 10.0094 29.0404 10.1064 28.7319 10.6083L28.7611 10.5705C28.5048 10.865 28.2191 11.2827 27.7847 11.2476C27.8128 11.1219 27.8046 10.9908 27.7609 10.8696C27.7171 10.7484 27.6398 10.6422 27.5379 10.5634C27.436 10.4846 27.3138 10.4364 27.1855 10.4246C27.0572 10.4127 26.9282 10.4377 26.8136 10.4965C26.308 10.8086 26.3544 11.5005 25.6228 11.5856C25.2856 11.6636 24.986 11.4853 24.6768 11.5242C24.6429 11.5197 24.6121 11.502 24.5911 11.4751C24.5937 11.4748 24.5374 11.417 24.5422 11.4024C24.4552 11.2695 24.3999 11.1184 24.3804 10.9608C24.361 10.8031 24.378 10.6431 24.4301 10.493C24.4219 10.5073 24.4172 10.5173 24.4048 10.5364ZM31.0765 8.36028C31.1022 8.37632 31.1238 8.39103 31.1229 8.39712L31.0765 8.36028ZM27.933 11.2476L27.9194 11.2506C27.8491 11.2668 27.8939 11.253 27.933 11.2476ZM24.6616 12.581C24.6769 12.5889 24.6944 12.5924 24.71 12.6C24.6736 12.6039 24.638 12.6133 24.6044 12.6279C24.6245 12.6137 24.6437 12.598 24.6616 12.581ZM24.1871 13.9558C24.1543 13.9421 24.1219 13.9277 24.089 13.9144L24.1871 13.9558ZM25.4386 14.2726C25.3517 13.7246 25.1856 13.1922 24.9454 12.6921C25.359 12.8484 25.811 12.8721 26.2387 12.76C26.6664 12.6479 27.0486 12.4055 27.3324 12.0664C27.6729 12.2974 28.085 12.3984 28.4938 12.3511C28.9025 12.3038 29.2807 12.1114 29.5595 11.8087C30.0953 12.1866 30.7405 12.3776 31.3956 12.3522C31.6512 13.8338 31.6865 15.8526 30.1159 16.6072C29.659 16.8067 29.1639 16.9034 28.6655 16.8907C28.1671 16.8779 27.6776 16.7559 27.2316 16.5332C26.7855 16.3106 26.3937 15.9928 26.0839 15.6022C25.7741 15.2116 25.5538 14.7576 25.4386 14.2726Z" fill="white"/>
<path d="M23.8644 22.6359C24.6495 21.9062 25.4601 20.8821 26.3044 20.2468C26.5875 20.0748 26.8921 19.8096 26.7304 19.4461C26.6828 19.3294 26.594 19.2342 26.4808 19.1787C26.3676 19.1232 26.238 19.1111 26.1166 19.1448C25.3985 19.3585 24.7458 19.7497 24.2188 20.2822C23.6918 20.8147 23.3074 21.4713 23.1012 22.1916C23.0772 22.2882 23.0852 22.3899 23.124 22.4816C23.1628 22.5732 23.2302 22.6498 23.3162 22.6999C23.4022 22.75 23.5021 22.7708 23.601 22.7593C23.6998 22.7477 23.7923 22.7045 23.8644 22.6359Z" fill="white"/>
<path d="M32.5139 20.1823C32.4788 20.1669 32.4484 20.1547 32.4183 20.1416L32.5139 20.1823Z" fill="white"/>
<path d="M10.0422 41.7599C10.0555 41.786 10.0719 41.8104 10.0911 41.8326C10.0618 41.7811 10.0448 41.758 10.0422 41.7599Z" fill="white"/>
<path d="M9.95298 40.8005C9.94314 40.8161 9.93544 40.8329 9.93008 40.8505C9.94839 40.8185 9.95934 40.7965 9.95298 40.8005Z" fill="white"/>
<path d="M9.97083 41.6351C9.98093 41.6557 9.99213 41.6758 10.0044 41.6952C9.99689 41.6733 9.98552 41.653 9.97083 41.6351Z" fill="white"/>
<path d="M24.2803 38.4819C21.2554 32.9185 14.1531 31.9612 8.46859 33.2267C8.39466 33.243 8.32572 33.2768 8.26751 33.3253C8.20931 33.3737 8.16353 33.4354 8.134 33.5051C8.10447 33.5748 8.09204 33.6506 8.09774 33.7261C8.10345 33.8016 8.12713 33.8746 8.16681 33.9391C4.9196 34.7496 2.80985 38.8057 2.33846 42.0697C1.61946 47.0487 3.7281 52.0137 8.33214 54.3199C10.6619 55.4399 13.2689 55.8526 15.8307 55.5069C18.3925 55.1611 20.7968 54.0721 22.7463 52.3745C26.5993 48.8489 26.6692 42.8755 24.2803 38.4819ZM21.8801 51.5227C20.9731 49.4712 18.3417 48.0513 16.1717 48.8065C16.1292 48.5442 16.1285 48.2701 16.0607 48.0149C16.6508 47.6335 17.1483 47.1251 17.5167 46.5268C17.8851 45.9285 18.1151 45.2554 18.1899 44.5567C18.5852 44.6416 18.9221 44.3202 19.1597 44.042C19.3102 43.8818 19.4261 43.6923 19.5001 43.4854C19.574 43.2784 19.6046 43.0584 19.5897 42.8391C19.5748 42.6199 19.5149 42.406 19.4137 42.2109C19.3124 42.0158 19.1721 41.8437 19.0013 41.7053C20.4867 40.8931 19.6718 38.229 17.9491 38.6016C17.4186 37.2161 15.2813 37.1078 14.412 38.216C14.1192 38.0382 13.7937 37.921 13.4547 37.8715C13.1157 37.8219 12.7702 37.841 12.4388 37.9275C12.1073 38.0141 11.7966 38.1664 11.5252 38.3753C11.2537 38.5843 11.0271 38.8457 10.8586 39.144C10.4128 39.0535 9.9496 39.1112 9.53961 39.3083C9.12963 39.5054 8.7953 39.8311 8.58754 40.2358C8.37979 40.6405 8.31001 41.102 8.38882 41.55C8.46763 41.9981 8.69071 42.4081 9.0241 42.7176C8.74195 42.9236 8.53444 43.2158 8.43287 43.5501C8.33129 43.8844 8.34116 44.2426 8.46098 44.5708C8.58081 44.899 8.80409 45.1794 9.09715 45.3696C9.39022 45.5598 9.73718 45.6495 10.0857 45.6253C10.304 46.1962 10.6345 46.7177 11.0576 47.1589C11.4806 47.6001 11.9878 47.9521 12.549 48.1941C12.413 48.8248 12.5163 50.1545 13.4513 49.8673C13.7547 51.0576 15.856 51.3817 16.0506 50.015C16.5002 49.7544 17.0102 49.6159 17.5299 49.6133C18.0495 49.6108 18.5608 49.7442 19.013 50.0004C19.4651 50.2567 19.8423 50.6267 20.1072 51.0738C20.3721 51.5209 20.5153 52.0296 20.5227 52.5492C13.7127 56.8929 3.80049 53.2751 3.19692 44.7998C2.86449 40.3029 5.58948 33.0216 11.3741 34.58C11.6673 34.6465 11.664 34.2174 11.3932 34.1983C15.09 33.9348 19.2824 34.3495 21.9096 37.2817C25.285 41.0132 25.9616 48.0529 21.8801 51.5227ZM14.5635 49.863C14.1726 49.9934 14.0097 49.8445 13.7352 49.6683C14.0381 49.3653 13.9468 48.9064 13.895 48.5234C14.2349 48.5557 14.5775 48.5417 14.9136 48.4818C14.8708 48.6634 14.8694 48.8524 14.9095 49.0346C14.9496 49.2169 15.0301 49.3878 15.1452 49.5347C14.9396 49.6322 14.7665 49.7537 14.5635 49.863ZM9.5352 44.2206C9.14719 43.9314 9.40623 43.3633 9.61738 43.0526C9.76757 43.0829 9.92351 43.0634 10.0617 42.9972C9.91132 43.1802 9.80388 43.3946 9.74724 43.6246C9.69059 43.8546 9.68618 44.0943 9.73432 44.3262C9.66399 44.299 9.59715 44.2636 9.5352 44.2206ZM9.90479 40.8938C9.92374 40.8782 9.95448 40.7473 9.96188 40.7857C10.2033 40.3173 10.7713 40.4874 11.1499 40.2557C11.0354 40.2925 11.328 40.1679 11.2627 40.205C11.7721 39.8139 12.1681 39.1763 12.8577 39.092C13.0925 39.0555 13.3316 39.0563 13.5662 39.0944C13.9504 39.215 14.7287 39.4703 14.7751 38.845C15.5282 38.5681 16.4634 38.2438 16.932 39.1338C17.0785 39.4287 17.3689 39.6932 17.7241 39.5128C17.7904 39.4895 18.0324 39.6928 17.8331 39.5375C17.9116 39.6104 18.005 39.6653 18.1069 39.6984C18.6473 39.936 18.2457 40.4709 17.9823 40.7655L18.0925 40.6228C17.9441 40.7619 17.8531 40.9515 17.8373 41.1543C17.1213 40.9011 16.3228 41.2754 15.5883 41.0113C15.4032 40.3668 14.5404 40.4638 14.2319 40.9658L14.2611 40.9279C14.0048 41.2225 13.7191 41.6401 13.2847 41.6051C13.3128 41.4793 13.3046 41.3482 13.2608 41.227C13.2171 41.1059 13.1398 40.9996 13.0379 40.9208C12.936 40.842 12.8137 40.7939 12.6855 40.782C12.5572 40.7702 12.4282 40.7951 12.3136 40.854C11.8079 41.1663 11.8543 41.858 11.1225 41.9431C10.7856 42.0211 10.486 41.8427 10.1769 41.8817C10.1429 41.8771 10.1121 41.8595 10.0911 41.8325C10.0937 41.8322 10.0374 41.7743 10.0422 41.7598C9.95524 41.6269 9.89989 41.4758 9.88044 41.3182C9.86099 41.1605 9.87797 41.0005 9.93007 40.8504C9.92188 40.8646 9.91719 40.8747 9.90479 40.8938ZM16.5762 38.7175C16.6022 38.7336 16.6238 38.7485 16.6229 38.7545L16.5762 38.7175ZM13.4333 41.605L13.4194 41.6081C13.3488 41.6243 13.3942 41.6105 13.4333 41.605ZM10.1616 42.9385C10.1769 42.9464 10.1945 42.9499 10.21 42.9575C10.1736 42.9614 10.138 42.9708 10.1044 42.9854C10.1246 42.9712 10.1437 42.9555 10.1616 42.9385ZM9.6868 44.3132C9.65412 44.2996 9.62187 44.2851 9.58901 44.2719L9.6868 44.3132ZM10.9386 44.6301C10.8518 44.0822 10.6856 43.5497 10.4455 43.0496C10.8591 43.2059 11.3111 43.2296 11.7387 43.1175C12.1664 43.0054 12.5486 42.763 12.8324 42.4239C13.1729 42.6549 13.5851 42.7559 13.9938 42.7086C14.4026 42.6613 14.7808 42.4689 15.0596 42.1663C15.5953 42.5441 16.2406 42.7351 16.8956 42.7098C17.1512 44.1913 17.1866 46.2102 15.616 46.9646C15.1591 47.1641 14.6639 47.2609 14.1655 47.2482C13.6671 47.2354 13.1776 47.1134 12.7315 46.8907C12.2855 46.6681 11.8937 46.3503 11.5839 45.9596C11.2741 45.569 11.0538 45.1152 10.9386 44.6301Z" fill="white"/>
<path d="M9.36445 52.9933C10.1486 52.2647 10.9594 51.2401 11.8044 50.6042C12.0875 50.4322 12.3922 50.1671 12.2305 49.8036C12.1828 49.6868 12.094 49.5917 11.9808 49.5361C11.8677 49.4806 11.738 49.4685 11.6166 49.5023C10.8985 49.716 10.2458 50.1071 9.71882 50.6396C9.19181 51.1721 8.80745 51.8288 8.60121 52.549C8.57725 52.6456 8.58525 52.7474 8.62403 52.839C8.6628 52.9307 8.73025 53.0073 8.81625 53.0573C8.90226 53.1074 9.00218 53.1282 9.10102 53.1167C9.19986 53.1051 9.2923 53.0618 9.36445 52.9933Z" fill="white"/>
<path d="M18.0139 50.5397C17.9789 50.5243 17.9484 50.5121 17.9183 50.499L18.0139 50.5397Z" fill="white"/>
<path d="M39.8592 40.8005C39.8494 40.8161 39.8417 40.8329 39.8363 40.8505C39.8546 40.8185 39.8656 40.7965 39.8592 40.8005Z" fill="white"/>
<path d="M39.9485 41.7599C39.9618 41.786 39.9782 41.8104 39.9973 41.8326C39.9681 41.7811 39.951 41.758 39.9485 41.7599Z" fill="white"/>
<path d="M39.8771 41.6351C39.8872 41.6557 39.8984 41.6758 39.9107 41.6952C39.9031 41.6733 39.8918 41.653 39.8771 41.6351Z" fill="white"/>
<path d="M38.3748 33.2267C38.3009 33.243 38.232 33.2768 38.1738 33.3253C38.1156 33.3737 38.0698 33.4354 38.0403 33.5051C38.0107 33.5748 37.9983 33.6506 38.004 33.7261C38.0097 33.8016 38.0334 33.8746 38.0731 33.9391C34.8258 34.7496 32.7161 38.8057 32.2447 42.0697C31.5257 47.0487 33.6343 52.0137 38.2384 54.3199C40.5682 55.4399 43.1751 55.8526 45.7369 55.5069C48.2987 55.1611 50.703 54.0721 52.6525 52.3745C56.5056 48.8489 56.5755 42.8755 54.1865 38.4819C51.1616 32.9185 44.0593 31.9612 38.3748 33.2267ZM53.3041 49.7424C52.8814 50.402 52.3708 51.001 51.7864 51.5227C50.8793 49.4712 48.248 48.0513 46.0779 48.8065C46.0354 48.5442 46.0348 48.2701 45.9669 48.0149C46.5571 47.6335 47.0545 47.1251 47.4229 46.5268C47.7913 45.9285 48.0213 45.2554 48.0961 44.5567C48.4914 44.6416 48.8283 44.3202 49.066 44.042C49.2165 43.8818 49.3323 43.6923 49.4063 43.4854C49.4803 43.2784 49.5108 43.0584 49.4959 42.8391C49.4811 42.6199 49.4212 42.406 49.3199 42.2109C49.2187 42.0158 49.0783 41.8437 48.9076 41.7053C50.3929 40.8931 49.578 38.229 47.8553 38.6016C47.3249 37.2161 45.1875 37.1078 44.3182 38.216C44.0255 38.0382 43.6999 37.921 43.3609 37.8715C43.022 37.8219 42.6765 37.841 42.345 37.9275C42.0136 38.0141 41.7029 38.1664 41.4314 38.3753C41.16 38.5843 40.9333 38.8457 40.7648 39.144C40.319 39.0535 39.8558 39.1112 39.4458 39.3083C39.0358 39.5054 38.7015 39.8311 38.4937 40.2358C38.286 40.6404 38.2162 41.102 38.295 41.55C38.3738 41.998 38.5969 42.408 38.9303 42.7175C38.6481 42.9236 38.4406 43.2158 38.339 43.5501C38.2375 43.8844 38.2473 44.2426 38.3672 44.5708C38.487 44.899 38.7103 45.1793 39.0033 45.3695C39.2964 45.5597 39.6434 45.6495 39.9919 45.6253C40.2102 46.1962 40.5407 46.7177 40.9637 47.1588C41.3868 47.6 41.8939 47.952 42.4552 48.1941C42.3191 48.8248 42.4225 50.1545 43.3575 49.8673C43.6609 51.0576 45.7622 51.3817 45.9568 50.015C46.4079 49.7641 46.9159 49.6335 47.4321 49.6355C47.9482 49.6376 48.4552 49.7723 48.9042 50.0268C49.3533 50.2812 49.7294 50.6469 49.9964 51.0886C50.2634 51.5303 50.4123 52.0333 50.4289 52.5492C43.6189 56.8929 33.7067 53.2751 33.1031 44.7997C32.7707 40.3029 35.4957 33.0216 41.2803 34.58C41.5735 34.6465 41.5702 34.2174 41.2994 34.1983C44.9962 33.935 49.1885 34.3494 51.8157 37.2817C54.6651 40.4262 55.6297 46.0684 53.3041 49.7424ZM44.4697 49.863C44.0789 49.9934 43.9159 49.8445 43.6414 49.6683C43.9443 49.3653 43.853 48.9064 43.8013 48.5234C44.1411 48.5557 44.4837 48.5417 44.8198 48.4818C44.777 48.6634 44.7756 48.8524 44.8157 49.0346C44.8558 49.2169 44.9364 49.3878 45.0515 49.5347C44.8459 49.6322 44.6728 49.7537 44.4697 49.863ZM39.4414 44.2206C39.0534 43.9314 39.3125 43.3633 39.5236 43.0526C39.6738 43.0829 39.8298 43.0634 39.9679 42.9972C39.8176 43.1802 39.7101 43.3946 39.6535 43.6246C39.5968 43.8546 39.5924 44.0943 39.6406 44.3262C39.5702 44.299 39.5034 44.2636 39.4414 44.2206ZM39.811 40.8938C39.83 40.8782 39.8607 40.7473 39.8681 40.7857C40.1096 40.3173 40.6775 40.4874 41.0561 40.2557C40.9417 40.2925 41.2343 40.1679 41.169 40.205C41.6783 39.8139 42.0743 39.1763 42.7639 39.092C42.9988 39.0555 43.2378 39.0563 43.4724 39.0944C43.8567 39.215 44.6349 39.4703 44.6813 38.845C45.4344 38.5681 46.3696 38.2438 46.8382 39.1338C46.9847 39.4287 47.2751 39.6932 47.6303 39.5128C47.6966 39.4895 47.9386 39.6928 47.7393 39.5375C47.8178 39.6104 47.9112 39.6653 48.0131 39.6984C48.5535 39.936 48.1519 40.4709 47.8885 40.7655L47.9987 40.6228C47.8503 40.7619 47.7593 40.9515 47.7435 41.1543C47.0275 40.9011 46.2291 41.2754 45.4945 41.0113C45.3094 40.3668 44.4466 40.4638 44.1381 40.9658L44.1673 40.9279C43.911 41.2225 43.6253 41.6401 43.1909 41.6051C43.219 41.4793 43.2108 41.3482 43.167 41.227C43.1233 41.1059 43.046 40.9996 42.9441 40.9208C42.8422 40.842 42.7199 40.7939 42.5917 40.782C42.4634 40.7702 42.3344 40.7951 42.2198 40.854C41.7141 41.1663 41.7605 41.858 41.0288 41.9431C40.6918 42.0211 40.3922 41.8427 40.0831 41.8817C40.0492 41.8771 40.0184 41.8595 39.9973 41.8325C39.9999 41.8322 39.9436 41.7743 39.9485 41.7598C39.8615 41.6269 39.8061 41.4758 39.7867 41.3182C39.7672 41.1605 39.7842 41.0005 39.8363 40.8504C39.8281 40.8646 39.8234 40.8747 39.811 40.8938ZM46.4825 38.7175C46.5085 38.7336 46.5301 38.7485 46.5291 38.7545L46.4825 38.7175ZM43.3396 41.605L43.3256 41.6081C43.2551 41.6243 43.3004 41.6105 43.3396 41.605ZM40.0679 42.9385C40.0832 42.9464 40.1007 42.9499 40.1163 42.9575C40.0799 42.9614 40.0442 42.9708 40.0107 42.9854C40.0308 42.9712 40.05 42.9555 40.0679 42.9385ZM39.5931 44.3132C39.5604 44.2996 39.5281 44.2851 39.4953 44.2719L39.5931 44.3132ZM40.8448 44.6301C40.758 44.0822 40.5919 43.5497 40.3517 43.0496C40.7653 43.2059 41.2173 43.2296 41.645 43.1175C42.0727 43.0054 42.4549 42.763 42.7387 42.4239C43.0792 42.6549 43.4913 42.7559 43.9001 42.7086C44.3088 42.6613 44.687 42.4689 44.9658 42.1663C45.5016 42.5441 46.1468 42.7351 46.8019 42.7098C47.0575 44.1913 47.0928 46.2102 45.5222 46.9646C45.0653 47.1641 44.5702 47.2609 44.0718 47.2482C43.5734 47.2354 43.0839 47.1134 42.6378 46.8907C42.1917 46.6681 41.7999 46.3503 41.4901 45.9596C41.1803 45.569 40.9601 45.1152 40.8448 44.6301Z" fill="white"/>
<path d="M39.2707 52.9933C40.0549 52.2647 40.8657 51.2401 41.7107 50.6042C41.9938 50.4322 42.2984 50.1671 42.1367 49.8036C42.0891 49.6868 42.0003 49.5917 41.8871 49.5361C41.7739 49.4806 41.6443 49.4685 41.5228 49.5023C40.8048 49.716 40.1521 50.1071 39.6251 50.6396C39.0981 51.1721 38.7137 51.8288 38.5075 52.549C38.4835 52.6456 38.4915 52.7474 38.5303 52.839C38.569 52.9307 38.6365 53.0073 38.7225 53.0573C38.8085 53.1074 38.9084 53.1282 39.0073 53.1167C39.1061 53.1051 39.1985 53.0618 39.2707 52.9933Z" fill="white"/>
<path d="M47.9201 50.5397C47.8851 50.5243 47.8547 50.5121 47.8246 50.499L47.9201 50.5397Z" fill="white"/>
<path d="M10.915 29.4678C11.2451 29.0539 11.4345 28.5455 11.4555 28.0165C12.0479 25.0063 13.7462 22.327 16.2157 20.5066C17.9604 19.4475 16.9628 18.2487 15.4079 19.4135C13.0328 21.0282 11.2726 23.3974 10.4122 26.1375C10.1196 27.0365 9.53349 28.6489 10.2302 29.4678C10.3221 29.5565 10.4448 29.6061 10.5726 29.6061C10.7003 29.6061 10.8231 29.5565 10.915 29.4678Z" fill="white"/>
<path d="M31.239 45.6787C29.7963 46.1946 28.2306 46.8183 26.6719 46.4477C25.9532 46.283 25.5509 47.32 26.1809 47.6124C27.1534 48.0307 28.2309 48.1406 29.2679 47.9274C30.3048 47.7141 31.2515 47.188 31.9801 46.4199C32.0277 46.353 32.0942 46.2424 31.239 45.6787Z" fill="white"/>
<path d="M39.7882 19.8695C41.2401 20.7132 42.5062 21.842 43.5104 23.1878C44.5146 24.5337 45.236 26.0689 45.6314 27.7009C45.7191 28.8148 45.8815 29.9217 46.1176 31.0139C46.142 31.0926 46.1884 31.1628 46.2515 31.2159C46.3145 31.269 46.3915 31.303 46.4733 31.3137C46.555 31.3243 46.6381 31.3113 46.7127 31.2762C46.7873 31.241 46.8502 31.1852 46.894 31.1154C48.5357 27.0888 44.2531 20.0832 40.1549 18.9999C40.0447 18.9735 39.9287 18.987 39.8275 19.0382C39.7264 19.0893 39.6467 19.1747 39.6026 19.2791C39.5586 19.3836 39.5531 19.5002 39.5871 19.6084C39.621 19.7165 39.6923 19.809 39.7882 19.8695Z" fill="white"/>
</svg>
