<svg width="58" height="58" viewBox="0 0 58 58" fill="none" xmlns="http://www.w3.org/2000/svg">
<path d="M25.9276 25.86C25.9268 25.86 25.9268 25.86 25.9268 25.8608C23.7248 30.9393 27.1855 37.3643 33.557 37.3643C39.1873 37.3643 42.5635 32.0555 41.5868 27.4382C41.032 24.8118 39.1846 22.6276 36.6466 21.5941C32.3127 19.8316 27.6241 21.9512 25.9276 25.86ZM26.5173 29.8841C27.7602 29.6932 28.9847 29.3675 30.1752 28.9342C30.5013 30.0203 30.9585 31.1135 31.8149 32.4887C30.8773 33.1967 30.0201 33.9676 29.2949 34.7927C27.6209 33.5635 26.7282 31.7655 26.5173 29.8841ZM30.8996 23.7814C31.7703 24.3054 32.6165 25.0957 33.3929 26.0508C32.6307 26.5313 31.8312 26.9518 31.0083 27.3192C30.7965 26.1536 30.7538 24.9562 30.8996 23.7814ZM34.1114 27.0089C34.7609 27.9541 35.3377 29.0125 35.8085 30.1237C34.7547 30.5963 33.7364 31.1612 32.7828 31.795C32.151 30.7665 31.6226 29.6688 31.2831 28.5055C32.2628 28.0814 33.2112 27.5823 34.1114 27.0089ZM30.3379 35.4255C30.9677 34.7312 31.6884 34.0755 32.4809 33.4719C33.2206 34.4854 34.0478 35.3626 34.9126 36.045C33.3738 36.3372 31.7464 36.1121 30.3379 35.4255ZM36.3366 35.5994C35.3135 34.9537 34.3179 33.972 33.4476 32.7796C34.3273 32.1948 35.2661 31.6722 36.238 31.2334C36.7014 32.5646 36.9972 33.9352 37.075 35.2471C36.8297 35.3911 36.6305 35.4736 36.3366 35.5994ZM38.2023 34.4081C38.0634 33.2041 37.761 31.9787 37.3426 30.7863C38.3916 30.3886 39.4581 30.0831 40.5112 29.9037C40.3034 31.6129 39.4729 33.2446 38.2023 34.4081ZM40.552 28.7105C39.8945 28.6712 37.7546 29.3586 36.9155 29.6778C36.411 28.4834 35.7901 27.3488 35.0865 26.3295C36.1404 25.5666 37.1247 24.714 37.9966 23.7622C39.5393 24.9959 40.453 26.7822 40.552 28.7105ZM36.9958 23.0793C36.2044 23.9264 35.3215 24.691 34.3749 25.3754C33.383 24.1433 32.2735 23.1576 31.1246 22.5545C33.0297 21.8851 35.1627 22.0674 36.9958 23.0793ZM29.7866 23.2057C29.5463 24.7173 29.5785 26.272 29.881 27.7739C28.7752 28.1843 27.6371 28.4926 26.4814 28.6803C26.6068 26.3243 27.8315 24.415 29.7866 23.2057Z" fill="white"/>
<path d="M35.0855 41.0808C35.411 41.0808 35.0564 41.1668 42.9733 36.2237C43.642 35.8027 43.0038 34.7963 42.3386 35.215L34.7674 39.9806C34.2626 40.2984 34.4892 41.0808 35.0855 41.0808Z" fill="white"/>
<path d="M24.7987 22.5701C25.1447 22.5701 24.7854 22.657 31.9858 17.7999C32.6392 17.355 31.9656 16.3724 31.3154 16.8145L24.4627 21.4815C23.9776 21.8119 24.214 22.5701 24.7987 22.5701Z" fill="white"/>
<path d="M20.4839 11.9613L14.8136 17.2312C14.2366 17.7674 15.0457 18.6413 15.6252 18.1048L21.2955 12.8349C21.8725 12.2987 21.0633 11.4247 20.4839 11.9613Z" fill="white"/>
<path d="M3.88852 22.7479C8.28442 24.9038 12.7376 27.0834 17.1478 29.2452C19.5795 35.6971 22.0114 42.1491 24.4431 48.6009C24.9176 49.8598 25.3941 51.0614 26.6349 51.6206C26.7392 51.8428 26.9706 51.9936 27.2458 51.9612C37.1556 50.6918 45.6509 48.4386 53.2183 45.0728C54.8332 44.3547 55.2781 43.3813 54.3472 41.8288L50.9217 36.1023C51.7286 35.5705 51.9417 35.3011 52.0405 34.8604C52.2375 33.9782 40.0213 10.952 39.9547 10.8719C38.9563 9.67214 37.6942 9.3437 36.2315 10.0487C35.058 10.6135 33.9035 11.2433 32.7632 11.8966C29.1746 9.88336 25.6861 8.03003 22.2925 6.11102C22.0861 5.99541 21.8308 6.0117 21.6415 6.15292C3.83942 19.4976 2.3494 20.1876 3.44383 21.0119C3.59208 21.5905 3.74027 22.1692 3.88852 22.7479ZM30.772 50.2505C36.9768 46.8636 43.9678 45.6489 50.9529 44.7314C44.9114 47.231 38.2704 49.0569 30.772 50.2505ZM53.6326 43.1885C46.702 44.0551 39.8287 44.9478 33.3901 47.667L49.9261 36.759C53.4899 42.7461 53.621 42.8179 53.6326 43.1885ZM36.7483 11.1226C37.785 10.624 38.4886 10.8912 39.165 11.7932C39.2352 11.8868 50.9032 34.4849 50.8774 34.6005C50.8354 34.789 52.0359 33.9402 27.3413 50.2294L17.5463 25.4076C16.9987 24.0185 16.9572 23.4793 18.7195 22.2443C23.3139 19.0246 32.3192 13.2551 36.7483 11.1226ZM20.1879 19.7848C20.4269 17.8702 21.5912 16.0651 23.2616 15.1006C24.7606 14.2344 26.6419 14.0615 28.2979 14.5754C28.0759 14.7145 24.7421 16.691 20.1879 19.7848ZM22.045 7.34004C25.0569 9.03672 28.0327 10.6237 31.5665 12.5945C30.8956 12.9925 30.2306 13.3924 29.5715 13.7959C24.7134 11.5174 19.1947 14.9433 18.9468 20.1711C18.94 20.3157 18.9918 20.4461 19.0725 20.5534C17.5431 21.6093 15.8453 22.5523 16.0374 24.4315C15.8245 24.7914 15.9777 25.5311 16.0444 25.9018C12.8124 24.2191 9.07662 22.3299 4.82314 20.3666C5.70364 19.515 4.3536 20.6009 22.045 7.34004Z" fill="white"/>
</svg>
