<svg width="58" height="58" viewBox="0 0 58 58" fill="none" xmlns="http://www.w3.org/2000/svg">
<path d="M56.4885 24.8961C56.427 24.7467 56.383 24.5973 56.3039 24.448C56.2073 24.2898 56.1018 24.1228 55.9964 23.9646C55.7415 23.6658 55.4339 23.3846 55.0648 23.2177C54.3355 22.8661 53.5621 22.831 52.8415 22.8925C51.4179 23.0595 50.0382 23.5516 48.6497 24.1931C47.2524 24.8346 45.82 25.6167 44.3261 26.5395C42.8409 27.4534 41.2855 28.4904 39.6773 29.6592C38.6139 30.4413 37.5242 31.2498 36.417 32.1549C36.2588 32.0055 36.0391 31.8122 35.7403 31.5574C35.4327 31.2849 35.0197 30.9861 34.5452 30.6522C34.0794 30.3007 33.5082 29.9404 32.8755 29.5625C30.3709 28.0246 26.5042 26.3286 21.917 25.977C19.6409 25.8013 17.2067 25.9683 14.8515 26.5395C14.2539 26.6537 13.6827 26.8558 13.0939 27.0316C12.5052 27.1986 11.9515 27.4358 11.3803 27.6555C10.2467 28.0861 9.16576 28.6398 8.14636 29.2725C6.10758 30.538 4.34121 32.1989 3.15485 34.0707C2.55727 35.011 2.10909 35.9601 1.74879 36.9092C1.41485 37.867 1.14242 38.8249 1.16 39.8443C1.17758 40.3101 1.2303 40.8022 1.45 41.2855C1.53788 41.5228 1.72242 41.7513 1.86303 41.971C2.05636 42.1467 2.24091 42.3664 2.46061 42.4895C2.88242 42.7707 3.38333 42.9025 3.75242 42.9904C4.12152 43.0607 4.48182 43.1222 4.82455 43.1749C6.23061 43.3771 7.53121 43.4122 8.73515 43.421C11.1255 43.4034 13.1115 43.421 14.8779 43.4649C18.3842 43.544 20.7833 43.5089 22.3915 43.3771C23.4285 43.2892 24.1403 43.1925 24.6324 43.1046C25.1509 43.544 25.8452 43.6231 26.3109 43.5704C26.8206 43.5264 27.2512 43.3946 27.6379 43.2892C28.0158 43.1837 28.3497 43.1222 28.7188 43.0695C29.4394 42.9904 30.1776 43.0343 30.8982 43.1837C30.7048 43.2452 30.4236 43.377 30.0721 43.6055C29.4394 44.0098 28.6133 44.7128 27.8839 45.7322C27.1545 46.7428 26.5394 48.061 26.1967 49.4758C26.0297 50.1789 25.9155 50.9083 25.8627 51.6289C25.8364 51.9892 25.8188 52.3495 25.8188 52.701C25.8188 53.1316 25.8539 53.8258 25.9155 54.4322C25.9945 54.6343 26.0561 54.9067 26.1791 54.9595L26.3373 55.1089C26.4076 55.1704 26.4691 55.1616 26.5306 55.188C26.5833 55.2055 26.6448 55.2231 26.7415 55.2143C26.8294 55.1967 26.8997 55.2407 27.0051 55.1792L27.3303 55.021C27.4445 54.9595 27.5588 54.8716 27.673 54.7925C27.9015 54.6431 28.1212 54.4937 28.3409 54.3443C28.4639 54.2652 28.5782 54.1949 28.6924 54.1246C28.8945 54.0016 29.0879 53.8874 29.2812 53.7907C30.2039 53.281 30.9333 53.1052 31.8297 52.9119C32.2691 52.8152 32.7261 52.6658 33.1215 52.4813C33.517 52.288 33.8509 52.077 34.1321 51.8574C35.257 50.9522 35.7139 50.1613 36.0303 49.6604C36.2676 49.2386 36.373 48.9661 36.417 48.7728V49.1331C36.3906 49.9064 36.2852 50.7061 36.2061 51.5234C36.1621 51.9277 36.127 52.3407 36.1006 52.7537C36.083 52.9558 36.0742 53.1931 36.1006 53.4743C36.1358 53.7907 36.2676 54.1422 36.5136 54.3795C36.7509 54.6343 37.1639 54.7749 37.4539 54.8013C37.7439 54.8364 37.9636 54.8013 38.2097 54.7925C38.4558 54.7925 38.6842 54.7222 38.9215 54.6695C39.1588 54.6255 39.3785 54.5289 39.5894 54.441C40.4506 54.0631 41.1536 53.4743 41.7248 52.8328C42.8497 51.541 43.5615 50.0734 44.0712 48.641C44.3173 47.9204 44.5194 47.1998 44.6424 46.4792C44.7479 45.8816 45.0379 45.3455 45.4245 44.8798C46.2242 43.9483 47.2612 43.2628 48.1224 42.4983C49.0012 41.7249 49.6252 40.9077 50.1876 40.1958C50.7324 39.4752 51.163 38.8249 51.497 38.2889C52.1561 37.1992 52.4285 36.5489 52.3845 36.5225C52.323 36.4874 51.9451 37.0761 51.1982 38.0867C50.8203 38.5877 50.3545 39.194 49.7745 39.8619C49.1858 40.521 48.5267 41.2943 47.6742 41.9622C46.8218 42.6564 45.7497 43.2804 44.783 44.3174C44.3085 44.8358 43.8955 45.5213 43.7285 46.3034C43.5879 46.9625 43.3858 47.6304 43.1309 48.2895C42.6212 49.6164 41.9006 50.961 40.89 52.0595C40.3803 52.5955 39.7915 53.0613 39.1324 53.3249C38.9655 53.3952 38.8073 53.4567 38.6315 53.4831C38.4645 53.5183 38.2888 53.571 38.113 53.5622C37.9461 53.5622 37.7439 53.5886 37.6209 53.5622C37.4979 53.5446 37.4891 53.5271 37.4276 53.4831C37.3924 53.4392 37.3748 53.404 37.3661 53.3161C37.3573 53.1931 37.3661 53.0349 37.3836 52.8416C37.4188 52.4549 37.4627 52.0595 37.5067 51.664C37.6033 50.8731 37.7264 50.0558 37.7791 49.1946C37.823 48.3334 37.7967 47.4107 37.5067 46.4967C37.2079 45.5828 36.6367 44.7655 35.9512 44.1504C34.6067 42.9377 33.0161 42.0852 31.2497 41.6722C30.3709 41.4789 29.457 41.4086 28.5518 41.4964C28.1036 41.5492 27.6379 41.637 27.2248 41.7425C26.8294 41.848 26.4691 41.9358 26.1703 41.9534C25.8627 41.971 25.7221 41.9183 25.6518 41.8392C25.5727 41.7777 25.5112 41.6283 25.5112 41.347C25.5112 41.0746 25.5727 40.7407 25.6782 40.3892C25.7573 40.0377 25.8803 39.6949 25.9945 39.361C26.4955 38.034 27.3039 36.8828 28.3233 36.1358C29.3427 35.3889 30.5467 35.0813 31.6979 35.1955C32.2779 35.2307 32.8403 35.3889 33.3764 35.5646C33.4467 35.5822 33.5082 35.5998 33.5873 35.6349C33.6488 35.6613 33.8509 35.7316 33.9915 35.758C34.2903 35.8195 34.6067 35.7931 34.8879 35.6789C35.0285 35.6173 35.1515 35.5383 35.2745 35.4416C35.3888 35.3537 35.5206 35.2131 35.5558 35.1692C35.6524 35.0637 35.7227 34.9934 35.837 34.8967C37.4276 33.4643 39.1236 32.1901 40.6879 31.0389C42.2609 29.8877 43.7724 28.8683 45.2136 27.9631C45.9958 27.471 46.7603 27.0316 47.4985 26.6186C47.5424 27.0667 47.7182 27.6292 47.9994 28.1916C48.597 29.3867 49.6515 30.5995 50.4512 31.2146C51.91 32.3483 52.8415 32.6295 53.3248 32.691C53.5358 32.7086 53.6676 32.6822 53.7642 32.6295C53.0173 34.2904 52.5691 35.2307 52.4021 35.7667C52.1912 36.3643 52.2703 36.461 52.3758 36.5225C52.4812 36.584 52.6042 36.6016 52.9997 36.0919C53.3864 35.5734 54.0718 34.598 55.1791 32.4889C55.7064 31.4255 56.3742 30.081 56.7258 28.174C56.8839 27.2425 56.9279 26.1001 56.4885 24.8961ZM34.9758 45.2401C35.5206 45.7234 35.9424 46.3034 36.1709 46.9625C36.3379 47.4458 36.4082 47.9731 36.4258 48.5267C36.3994 48.4389 36.3291 48.3861 36.2676 48.3334C36.0742 48.184 35.8721 48.1225 35.0724 48.931C34.6682 49.3177 34.1233 49.9592 33.2182 50.5831C32.7436 50.8907 32.2603 51.128 31.4782 51.2774C31.0827 51.3652 30.6082 51.4355 30.0721 51.6025C29.5448 51.7607 29.0088 51.998 28.4815 52.2792C28.2618 52.3934 28.0421 52.5252 27.8136 52.6658C27.717 52.7274 27.6203 52.7889 27.5148 52.8592V52.868C27.5148 52.8767 27.4885 52.9207 27.4797 52.8943C27.4709 52.8767 27.4621 52.9207 27.4533 52.6834C27.4358 52.3671 27.4358 52.0419 27.4358 51.7167C27.4445 51.0664 27.5061 50.4161 27.6027 49.7746C27.8048 48.4916 28.2355 47.2877 28.7803 46.3034C29.7206 44.5546 30.9685 43.5967 31.1794 43.2716C32.5503 43.5967 33.9036 44.2998 34.9758 45.2401ZM26.2318 27.8049C25.9155 28.2004 25.4673 28.798 24.6412 29.5977C24.5358 29.6943 24.4215 29.7998 24.3073 29.9052C24.2458 29.958 24.1842 30.0107 24.1139 30.0722C24.07 30.1074 24.0964 30.0986 24.0788 30.1073C24.0788 30.1249 24.0436 30.2128 23.9733 30.204C23.903 30.4764 23.7009 29.1143 23.6394 28.4992C23.5603 27.8664 23.5076 27.4183 23.3758 27.304C24.3688 27.4183 25.3179 27.594 26.2318 27.8049ZM18.9115 30.0283C18.9115 30.037 18.9027 30.0458 18.9027 30.0458L18.8852 30.0546L18.8764 30.0634L18.7797 30.0107C18.2524 29.7119 17.7339 29.3077 17.2945 28.877C16.8639 28.464 16.5212 28.0158 16.2664 27.6819C17.4615 27.427 18.6655 27.2601 19.8606 27.2073C19.7552 27.4095 19.6321 27.6819 19.5091 28.0422C19.4212 28.2883 19.3245 28.5783 19.2191 28.921C19.1312 29.2373 19.0258 29.5977 18.9115 30.0107C18.9027 30.0107 18.9115 30.0195 18.9115 30.0283ZM34.6594 33.6401C34.5539 33.7367 34.4045 33.8861 34.2991 34.0004C34.2376 34.0619 34.2639 34.0355 34.2551 34.0443C34.2376 34.0355 34.2991 34.0619 34.2112 34.0267L33.9739 33.9477C33.3148 33.728 32.6118 33.5346 31.8473 33.4907C30.3358 33.3413 28.6573 33.7807 27.3215 34.7825C25.9858 35.7755 25.0279 37.2255 24.4479 38.7986C24.3161 39.194 24.1755 39.5983 24.0876 40.0113C23.9821 40.4067 23.8855 40.8549 23.8855 41.3822C23.8855 41.6195 23.9206 41.9007 24.0173 42.1819C23.5867 42.1643 23.0506 42.1555 22.3652 42.1467C20.7745 42.1204 18.437 42.0237 14.9306 41.8567C13.1906 41.7777 11.0991 41.7161 8.76152 41.7161C7.59273 41.6986 6.36242 41.6458 5.07939 41.4613C4.76303 41.4086 4.43788 41.3558 4.11273 41.2855C3.79636 41.2152 3.60303 41.1537 3.41849 41.0395C3.06697 40.8461 2.91758 40.4331 2.89121 39.818C2.9 38.4646 3.59424 36.6016 4.58727 34.9758C5.60667 33.3237 7.14455 31.8122 8.99879 30.617C9.92152 30.0195 10.9145 29.4834 11.9691 29.0528C12.4964 28.8331 13.0148 28.5958 13.5597 28.4289C14.1045 28.2443 14.6406 28.051 15.1942 27.928C15.3261 27.8928 15.4667 27.8664 15.5985 27.8313C15.6776 28.3058 15.8885 28.9561 16.3103 29.6416C16.697 30.2655 17.2506 30.8719 17.8658 31.3377L17.98 31.4255L18.1909 31.5661C18.3315 31.654 18.4721 31.7331 18.6215 31.777C18.9115 31.8825 19.2103 31.8737 19.4827 31.7946C20.0364 31.6189 20.3527 31.1092 20.5109 30.6258C20.59 30.3886 20.59 30.3446 20.6252 30.2216C20.6515 30.1161 20.6779 30.0195 20.7042 29.914C20.7482 29.7207 20.8009 29.5361 20.8361 29.3604C20.9151 29.0177 20.9767 28.7189 21.0294 28.4552C21.1261 27.9367 21.1524 27.5764 21.1436 27.3216C21.1436 27.2601 21.1261 27.2249 21.1173 27.181C21.3545 27.181 21.5918 27.1722 21.8291 27.181C22.3124 27.1986 22.7782 27.2425 23.2439 27.2864C23.0858 27.3743 22.8836 27.7874 22.7342 28.4377C22.6464 28.8067 22.5761 29.2549 22.5409 29.7295C22.5233 29.9755 22.5058 30.1513 22.5321 30.6434C22.5585 31.0652 22.6288 31.4958 22.8397 31.7331C23.0418 31.988 23.4109 32.1198 23.7185 32.0934C24.0348 32.0934 24.3776 31.8913 24.7027 31.7155C24.8521 31.6101 25.0015 31.5134 25.1421 31.408C25.23 31.3464 25.3091 31.2849 25.3882 31.2234C25.5464 31.1004 25.687 30.9773 25.81 30.8631C27.0667 29.6504 27.4621 28.7101 27.6115 28.1652C29.5273 28.7277 31.2058 29.4483 32.5327 30.1425C34.387 31.1004 35.6436 31.9264 36.25 32.2692C35.7315 32.7086 35.1955 33.1567 34.6594 33.6401ZM55.3021 27.9807C55.0648 29.6152 54.5112 30.9334 54.0718 31.9704C54.0542 31.8561 53.9927 31.7419 53.8433 31.5925C53.527 31.2586 52.8064 30.8631 51.5497 29.8789C50.8555 29.3428 49.8097 28.4201 49.0364 27.5325C48.6233 27.0931 48.3333 26.6361 48.1224 26.311C48.5355 26.0913 48.9397 25.8892 49.3439 25.6958C50.6445 25.0807 51.9012 24.6325 53.0085 24.4831C53.5533 24.4304 54.0455 24.4743 54.3794 24.6237C54.7133 24.7907 54.8979 24.984 55.0648 25.4498C55.3988 26.2758 55.4076 27.1722 55.3021 27.9807Z" fill="white"/>
<path d="M45.4158 34.4222C45.2488 34.3431 45.1433 34.3958 45.0467 34.4573C44.8182 34.5979 44.7655 34.7385 44.95 35.6701C45.0115 36.127 45.1345 36.8564 44.8533 37.7616C44.6864 38.1834 44.4579 38.6052 43.9482 38.9216C43.4649 39.2292 42.7179 39.4489 41.8742 39.3346C40.9603 39.2643 39.7739 38.7019 39.4576 37.5858C39.0885 36.3995 39.5982 34.9143 40.6352 34.1234C41.1361 33.7192 41.7336 33.4467 42.2697 33.3764C42.8145 33.3061 43.3242 33.4292 43.7285 33.6137C44.537 34.0179 44.9236 34.5364 45.0291 34.4486C45.1082 34.4046 44.95 33.7367 44.08 33.0337C43.6494 32.6998 42.9991 32.401 42.2258 32.401C41.4524 32.3834 40.6439 32.647 39.9145 33.1128C39.1852 33.5785 38.5524 34.2992 38.1745 35.1604C37.7879 36.0216 37.6912 37.0322 37.9021 37.9549C38.113 38.9392 38.7721 39.7652 39.4927 40.2485C40.2133 40.7495 40.9955 40.9604 41.6633 41.0395C42.8936 41.1976 44.0273 40.8813 44.8797 40.3189C45.7409 39.7476 46.1979 38.8776 46.3824 38.1746C46.6988 36.751 46.3473 35.8195 46.1012 35.2658C45.8376 34.721 45.5739 34.5101 45.4158 34.4222Z" fill="white"/>
<path d="M12.3645 17.8834C13.5421 21.8115 18.0503 25.1509 22.5848 24.1843C23.1385 24.0612 23.657 23.8591 24.1579 23.6131C24.6588 23.3582 25.0806 23.0506 25.4936 22.7606C26.3109 22.1455 27.0579 21.4776 27.673 20.7306C28.9385 19.2718 29.7206 17.6021 30.1161 16.0818C30.8367 13.2785 30.3709 10.6158 29.4218 8.64729C28.4991 6.64366 27.1985 5.20244 25.8627 4.22699C24.5182 3.25153 23.0858 2.82093 21.8994 2.77699C20.7042 2.72426 19.7727 2.99669 19.0873 3.26032C17.7076 3.83153 17.1539 4.37638 16.8903 4.66638C16.6267 4.96517 16.6794 5.07063 16.7497 5.17608C16.82 5.27275 16.9167 5.35184 17.2682 5.22881C17.6197 5.11456 18.2436 4.78063 19.4827 4.42032C20.0979 4.26214 20.88 4.10396 21.8115 4.20941C22.7342 4.29729 23.8327 4.67517 24.9224 5.51002C26.0033 6.34487 27.1194 7.61911 27.8839 9.35032C28.6836 11.0464 29.0527 13.2697 28.4464 15.6424C28.1124 16.9343 27.4621 18.3579 26.3812 19.6321C25.8627 20.2824 25.2212 20.8712 24.5182 21.4249C23.7888 21.9961 23.0858 22.4003 22.2333 22.62C20.5461 23.0506 18.6039 22.6112 16.9958 21.6446C15.3788 20.6955 14.1924 19.1488 13.5421 17.4615C12.8742 15.7743 12.7512 13.9815 12.9709 12.3997C13.1906 10.8091 13.7267 9.4382 14.3155 8.36608C15.5194 6.21305 16.8639 5.29911 16.7585 5.18487C16.7321 5.14093 16.363 5.3079 15.7918 5.75608C15.2206 6.19547 14.4648 6.93366 13.7355 8.01456C13.0236 9.09547 12.347 10.5279 12.013 12.2415C11.6527 13.9464 11.6967 15.95 12.3645 17.8834Z" fill="white"/>
<path d="M45.9782 50.3809C46.0836 49.8097 46.0397 49.4494 45.9606 49.4406C45.7849 49.4142 45.5476 50.7675 44.5458 52.0418C43.5703 53.3336 42.3136 53.9048 42.3839 54.063C42.4103 54.1333 42.7706 54.0894 43.2979 53.8433C43.8164 53.5972 44.4842 53.1139 45.0291 52.4109C45.5739 51.7166 45.8727 50.9521 45.9782 50.3809Z" fill="white"/>
<path d="M45.9606 51.9013C45.3015 52.8504 44.7479 53.6149 44.8709 53.7379C44.9852 53.8522 45.7673 53.2458 46.4615 52.2528C47.1558 51.2685 47.4633 50.3195 47.3139 50.2491C47.1558 50.1788 46.6285 50.961 45.9606 51.9013Z" fill="white"/>
<path d="M9.75455 19.8167C9.85121 19.7816 9.53485 18.8764 9.32394 17.3737C9.2097 16.6267 9.15697 15.7216 9.17455 14.7197C9.21849 13.7179 9.34152 12.6282 9.60515 11.5034C9.87758 10.3785 10.2642 9.35034 10.6861 8.44519C11.1255 7.54883 11.5824 6.76671 12.0218 6.14277C12.9006 4.90368 13.5861 4.2358 13.5158 4.15671C13.4806 4.10398 12.6721 4.6664 11.6791 5.87913C11.1782 6.4855 10.6685 7.26762 10.1852 8.19034C9.7194 9.12186 9.30637 10.194 9.01637 11.354C8.74394 12.5228 8.6297 13.6652 8.62091 14.7022C8.6297 15.7391 8.73515 16.6706 8.90212 17.4352C9.23606 18.9819 9.70182 19.8431 9.75455 19.8167Z" fill="white"/>
</svg>
