<svg width="309" height="49" viewBox="0 0 309 49" fill="none" xmlns="http://www.w3.org/2000/svg">
<path d="M79.7974 12.9679L71.2711 12.9499V12.4283H94.5655V12.9679H86.0572V38.313H79.7974V12.9679Z" fill="#181D26"/>
<path d="M109.424 19.6055C110.215 19.6055 110.947 19.7314 111.618 19.9832C112.29 20.2231 112.871 20.5768 113.363 21.0445C113.855 21.5002 114.238 22.0518 114.514 22.6994C114.79 23.335 114.928 24.0485 114.928 24.84V38.313H109.046V24.8939C109.046 23.9226 108.806 23.1611 108.326 22.6095C107.859 22.0578 107.181 21.782 106.294 21.782C105.538 21.782 104.861 21.9199 104.261 22.1957C103.673 22.4716 103.152 22.8373 102.696 23.293V38.313H96.814V11.0972H102.696V22.5015C103.775 21.4462 104.867 20.7027 105.97 20.271C107.085 19.8273 108.236 19.6055 109.424 19.6055Z" fill="#181D26"/>
<path d="M128.851 37.5755C129.546 37.5755 130.182 37.4735 130.757 37.2697C131.333 37.0538 131.861 36.784 132.34 36.4602C132.832 36.1244 133.27 35.7467 133.653 35.327C134.049 34.9072 134.403 34.4875 134.715 34.0678L135.11 34.3556C134.703 34.9672 134.229 35.5428 133.689 36.0825C133.162 36.6101 132.55 37.0718 131.855 37.4675C131.171 37.8513 130.397 38.1571 129.534 38.3849C128.683 38.6128 127.729 38.7267 126.674 38.7267C125.295 38.7267 124.054 38.4988 122.95 38.0431C121.847 37.5874 120.906 36.9519 120.126 36.1364C119.359 35.309 118.771 34.3316 118.364 33.2044C117.956 32.0771 117.752 30.842 117.752 29.4989C117.752 28.0358 117.98 26.6987 118.436 25.4875C118.903 24.2764 119.557 23.233 120.396 22.3576C121.236 21.4822 122.237 20.8047 123.4 20.325C124.575 19.8453 125.865 19.6055 127.268 19.6055C128.575 19.6055 129.738 19.8213 130.757 20.253C131.777 20.6728 132.634 21.2544 133.33 21.9979C134.037 22.7294 134.571 23.5928 134.93 24.5881C135.302 25.5835 135.488 26.6448 135.488 27.772H123.706V28.1677C123.706 29.331 123.778 30.4762 123.922 31.6034C124.078 32.7307 124.348 33.738 124.731 34.6254C125.115 35.5128 125.637 36.2264 126.296 36.766C126.968 37.3056 127.819 37.5755 128.851 37.5755ZM126.962 20.1631C126.458 20.1631 126.008 20.331 125.613 20.6668C125.229 21.0025 124.899 21.4762 124.623 22.0878C124.36 22.6994 124.15 23.4429 123.994 24.3183C123.85 25.1937 123.76 26.1711 123.724 27.2504H129.768C129.768 24.9599 129.546 23.2091 129.102 21.9979C128.671 20.7747 127.957 20.1631 126.962 20.1631Z" fill="#181D26"/>
<path d="M147.918 12.4283H154.178V37.7733H164.539V38.313H147.918V12.4283Z" fill="#181D26"/>
<path d="M174.828 37.5755C175.523 37.5755 176.159 37.4735 176.734 37.2697C177.31 37.0538 177.838 36.784 178.317 36.4602C178.809 36.1244 179.247 35.7467 179.631 35.327C180.026 34.9072 180.38 34.4875 180.692 34.0678L181.088 34.3556C180.68 34.9672 180.206 35.5428 179.667 36.0825C179.139 36.6101 178.527 37.0718 177.832 37.4675C177.148 37.8513 176.375 38.1571 175.511 38.3849C174.66 38.6128 173.707 38.7267 172.651 38.7267C171.272 38.7267 170.031 38.4988 168.928 38.0431C167.824 37.5874 166.883 36.9519 166.104 36.1364C165.336 35.309 164.749 34.3316 164.341 33.2044C163.933 32.0771 163.729 30.842 163.729 29.4989C163.729 28.0358 163.957 26.6987 164.413 25.4875C164.88 24.2764 165.534 23.233 166.373 22.3576C167.213 21.4822 168.214 20.8047 169.377 20.325C170.553 19.8453 171.842 19.6055 173.245 19.6055C174.552 19.6055 175.715 19.8213 176.734 20.253C177.754 20.6728 178.611 21.2544 179.307 21.9979C180.014 22.7294 180.548 23.5928 180.908 24.5881C181.279 25.5835 181.465 26.6448 181.465 27.772H169.683V28.1677C169.683 29.331 169.755 30.4762 169.899 31.6034C170.055 32.7307 170.325 33.738 170.709 34.6254C171.092 35.5128 171.614 36.2264 172.273 36.766C172.945 37.3056 173.796 37.5755 174.828 37.5755ZM172.939 20.1631C172.435 20.1631 171.986 20.331 171.59 20.6668C171.206 21.0025 170.876 21.4762 170.601 22.0878C170.337 22.6994 170.127 23.4429 169.971 24.3183C169.827 25.1937 169.737 26.1711 169.701 27.2504H175.745C175.745 24.9599 175.523 23.2091 175.08 21.9979C174.648 20.7747 173.934 20.1631 172.939 20.1631Z" fill="#181D26"/>
<path d="M195.838 34.6074C196.941 34.6074 197.942 34.7154 198.842 34.9312C199.753 35.1351 200.533 35.4529 201.18 35.8846C201.828 36.3163 202.331 36.8679 202.691 37.5395C203.051 38.199 203.231 38.9785 203.231 39.8779C203.231 40.8133 202.985 41.6587 202.493 42.4142C202.002 43.1817 201.288 43.8353 200.353 44.3749C199.417 44.9145 198.272 45.3283 196.917 45.6161C195.574 45.9039 194.051 46.0478 192.348 46.0478C191.017 46.0478 189.83 45.9219 188.786 45.67C187.755 45.4182 186.856 45.0704 186.088 44.6267C185.333 44.183 184.697 43.6494 184.182 43.0258C183.666 42.4142 183.252 41.7427 182.94 41.0112C183.624 40.7233 184.295 40.4235 184.955 40.1118C185.627 39.812 186.304 39.5122 186.988 39.2124C186.016 38.9006 185.279 38.4449 184.775 37.8453C184.271 37.2457 184.02 36.4542 184.02 35.4709C184.02 34.9312 184.116 34.4575 184.307 34.0498C184.511 33.6301 184.775 33.2523 185.099 32.9166C185.423 32.5688 185.788 32.257 186.196 31.9812C186.616 31.6934 187.042 31.4176 187.473 31.1537C186.418 30.6261 185.561 29.9246 184.901 29.0492C184.253 28.1618 183.93 27.0945 183.93 25.8473C183.93 24.852 184.164 23.9706 184.631 23.2031C185.111 22.4236 185.74 21.77 186.52 21.2424C187.299 20.7027 188.199 20.295 189.218 20.0192C190.249 19.7314 191.311 19.5875 192.402 19.5875C193.445 19.5875 194.447 19.7194 195.406 19.9832C196.377 20.247 197.253 20.6308 198.032 21.1345L202.205 18.6341L202.529 19.0838L198.446 21.4223C199.189 21.9739 199.777 22.6275 200.209 23.3829C200.652 24.1265 200.874 24.9659 200.874 25.9013C200.874 26.8127 200.67 27.6581 200.263 28.4376C199.855 29.2051 199.279 29.8706 198.536 30.4342C197.804 30.9859 196.917 31.4176 195.874 31.7294C194.83 32.0412 193.679 32.1971 192.42 32.1971C191.629 32.1971 190.855 32.1311 190.1 31.9992C189.356 31.8673 188.655 31.6634 187.995 31.3876C187.623 31.6154 187.281 31.8613 186.97 32.1251C186.658 32.3769 186.502 32.6767 186.502 33.0245C186.502 33.3483 186.598 33.6121 186.79 33.816C186.994 34.0198 187.269 34.1817 187.617 34.3016C187.965 34.4216 188.367 34.5055 188.822 34.5535C189.29 34.5894 189.788 34.6074 190.315 34.6074H195.838ZM192.402 20.1091C191.479 20.1091 190.801 20.6068 190.369 21.6021C189.938 22.5855 189.722 24.0185 189.722 25.9013C189.722 27.784 189.926 29.217 190.333 30.2004C190.741 31.1717 191.437 31.6574 192.42 31.6574C193.391 31.6574 194.075 31.1717 194.471 30.2004C194.878 29.229 195.082 27.796 195.082 25.9013C195.082 24.0065 194.872 22.5675 194.453 21.5842C194.033 20.6008 193.349 20.1091 192.402 20.1091ZM193.175 45.5081C195.262 45.4842 196.845 45.1784 197.924 44.5908C199.004 44.0151 199.543 43.1637 199.543 42.0365C199.543 41.6048 199.429 41.239 199.201 40.9392C198.986 40.6514 198.686 40.4175 198.302 40.2377C197.918 40.0578 197.469 39.9319 196.953 39.8599C196.449 39.788 195.91 39.752 195.334 39.752L190.621 39.734C190.058 39.71 189.53 39.6681 189.038 39.6081C188.547 39.5601 188.091 39.4882 187.671 39.3922C187.036 39.728 186.394 40.0398 185.746 40.3276C185.099 40.6154 184.457 40.9332 183.822 41.281C184.206 42.0605 184.697 42.72 185.297 43.2596C185.896 43.7993 186.58 44.237 187.347 44.5728C188.127 44.9085 188.966 45.1484 189.866 45.2923C190.777 45.4362 191.724 45.5081 192.708 45.5081H193.175Z" fill="#181D26"/>
<path d="M212.027 19.6055C213.562 19.6055 214.863 19.7674 215.93 20.0912C216.998 20.4029 217.867 20.8646 218.539 21.4762C219.21 22.0878 219.696 22.8433 219.996 23.7427C220.295 24.6421 220.445 25.6674 220.445 26.8186V38.313H219.582L215.589 34.3016L215.517 34.3916C214.605 35.9146 213.592 37.0238 212.477 37.7194C211.373 38.4029 210.186 38.7447 208.915 38.7447C208.267 38.7447 207.644 38.6547 207.044 38.4748C206.457 38.295 205.929 38.0252 205.461 37.6654C205.006 37.2936 204.64 36.8379 204.364 36.2983C204.1 35.7467 203.968 35.1111 203.968 34.3916C203.968 33.4202 204.19 32.5748 204.634 31.8553C205.078 31.1358 205.737 30.5242 206.613 30.0205C207.5 29.5049 208.603 29.0911 209.922 28.7793C211.241 28.4556 212.782 28.2157 214.545 28.0598V26.0452C214.545 25.3376 214.497 24.6361 214.401 23.9406C214.305 23.233 214.125 22.6035 213.862 22.0518C213.598 21.5002 213.232 21.0565 212.764 20.7207C212.297 20.373 211.685 20.1991 210.93 20.1991C210.414 20.1991 209.874 20.259 209.311 20.379C208.759 20.4989 208.225 20.6548 207.71 20.8466C207.206 21.0385 206.738 21.2484 206.307 21.4762C205.887 21.7041 205.539 21.9259 205.263 22.1418L205.03 21.6561C205.929 21.0445 206.966 20.5528 208.141 20.1811C209.317 19.7973 210.612 19.6055 212.027 19.6055ZM211.973 36.3703C212.537 36.3703 213.028 36.2204 213.448 35.9206C213.868 35.6208 214.233 35.279 214.545 34.8952V28.5275C213.778 28.5875 213.076 28.7673 212.441 29.0671C211.805 29.355 211.253 29.7207 210.786 30.1644C210.33 30.6081 209.976 31.1118 209.724 31.6754C209.473 32.239 209.347 32.8266 209.347 33.4382C209.347 33.8579 209.401 34.2477 209.509 34.6074C209.628 34.9672 209.796 35.279 210.012 35.5428C210.24 35.7946 210.516 35.9985 210.84 36.1544C211.175 36.2983 211.553 36.3703 211.973 36.3703Z" fill="#181D26"/>
<path d="M224.457 11.0972H230.339V38.313H224.457V11.0972Z" fill="#181D26"/>
<path d="M274.895 12.4283L265.919 38.313H263.257L257.842 22.3037L252.248 38.313H249.676L240.754 12.4283L247.697 12.3923L253.957 32.0531L257.554 21.4762L257.411 21.0265L254.46 12.4283H261.35L267.574 32.0531L274.337 12.4283H274.895Z" fill="#181D26"/>
<path d="M281.029 19.6055C282.564 19.6055 283.865 19.7674 284.932 20.0912C285.999 20.4029 286.869 20.8646 287.54 21.4762C288.212 22.0878 288.698 22.8433 288.997 23.7427C289.297 24.6421 289.447 25.6674 289.447 26.8186V38.313H288.584L284.59 34.3016L284.518 34.3916C283.607 35.9146 282.594 37.0238 281.478 37.7194C280.375 38.4029 279.188 38.7447 277.917 38.7447C277.269 38.7447 276.646 38.6547 276.046 38.4748C275.458 38.295 274.931 38.0252 274.463 37.6654C274.007 37.2936 273.642 36.8379 273.366 36.2983C273.102 35.7467 272.97 35.1111 272.97 34.3916C272.97 33.4202 273.192 32.5748 273.636 31.8553C274.079 31.1358 274.739 30.5242 275.614 30.0205C276.502 29.5049 277.605 29.0911 278.924 28.7793C280.243 28.4556 281.784 28.2157 283.547 28.0598V26.0452C283.547 25.3376 283.499 24.6361 283.403 23.9406C283.307 23.233 283.127 22.6035 282.863 22.0518C282.6 21.5002 282.234 21.0565 281.766 20.7207C281.299 20.373 280.687 20.1991 279.931 20.1991C279.416 20.1991 278.876 20.259 278.313 20.379C277.761 20.4989 277.227 20.6548 276.712 20.8466C276.208 21.0385 275.74 21.2484 275.309 21.4762C274.889 21.7041 274.541 21.9259 274.265 22.1418L274.031 21.6561C274.931 21.0445 275.968 20.5528 277.143 20.1811C278.319 19.7973 279.614 19.6055 281.029 19.6055ZM280.975 36.3703C281.538 36.3703 282.03 36.2204 282.45 35.9206C282.869 35.6208 283.235 35.279 283.547 34.8952V28.5275C282.78 28.5875 282.078 28.7673 281.442 29.0671C280.807 29.355 280.255 29.7207 279.788 30.1644C279.332 30.6081 278.978 31.1118 278.726 31.6754C278.474 32.239 278.349 32.8266 278.349 33.4382C278.349 33.8579 278.402 34.2477 278.51 34.6074C278.63 34.9672 278.798 35.279 279.014 35.5428C279.242 35.7946 279.518 35.9985 279.842 36.1544C280.177 36.2983 280.555 36.3703 280.975 36.3703Z" fill="#181D26"/>
<path d="M309 20.0372L301.139 38.313L299.736 41.4788C299.376 42.2703 298.981 42.9778 298.549 43.6014C298.117 44.237 297.674 44.7946 297.218 45.2743C296.762 45.766 296.318 46.1797 295.887 46.5155C295.455 46.8632 295.059 47.1451 294.7 47.3609L294.394 46.8932C294.79 46.6774 295.203 46.4015 295.635 46.0658C296.067 45.73 296.486 45.3403 296.894 44.8966C297.314 44.4529 297.71 43.9672 298.081 43.4395C298.453 42.9119 298.771 42.3483 299.035 41.7487L300.006 39.5182L299.502 38.313L291.552 20.0372H298.279L302.452 30.9199L303.082 32.6288L305.366 27.4302L308.406 20.0372H309Z" fill="#181D26"/>
<path d="M11.944 14.7054L0.413574 48.6279H23.9685L15.8972 22.2251L14.0853 26.737L19.8505 45.2858H4.69629L14.4148 16.5435L25.2863 11.6343V16.7106L28.4159 15.0396V10.221L41.4288 4.34477L50.9825 34.591H34.3458L41.4288 13.5356L39.7816 9.52506L29.8984 37.5989H54.9358L43.2407 0L28.4159 7.01847V0H25.2863V8.52242L11.944 14.7054Z" fill="#CCA776"/>
<path d="M30.2279 45.2858V48.6279H54.9358V45.2858H30.2279Z" fill="#CCA776"/>
</svg>
