<svg width="270" height="43" viewBox="0 0 270 43" fill="none" xmlns="http://www.w3.org/2000/svg">
<path d="M69.4575 11.3463L61.9973 11.3306V10.8741H82.3789V11.3463H74.9345V33.5221H69.4575V11.3463Z" fill="white"/>
<path d="M95.3791 17.1539C96.0716 17.1539 96.7117 17.2641 97.2992 17.4844C97.8868 17.6942 98.3957 18.0038 98.8259 18.413C99.2561 18.8117 99.5918 19.2943 99.8332 19.8609C100.074 20.417 100.195 21.0413 100.195 21.7338V33.5221H95.0486V21.7811C95.0486 20.9312 94.8387 20.2649 94.419 19.7822C94.0098 19.2996 93.417 19.0583 92.6406 19.0583C91.9795 19.0583 91.3867 19.1789 90.8621 19.4203C90.348 19.6616 89.8915 19.9816 89.4928 20.3803V33.5221H84.3463V9.70947H89.4928V19.6878C90.4372 18.7645 91.392 18.1139 92.3573 17.7362C93.3331 17.348 94.3404 17.1539 95.3791 17.1539Z" fill="white"/>
<path d="M112.377 32.8768C112.985 32.8768 113.542 32.7877 114.045 32.6093C114.549 32.4204 115.011 32.1843 115.43 31.901C115.86 31.6073 116.243 31.2767 116.579 30.9095C116.925 30.5423 117.235 30.175 117.508 29.8078L117.854 30.0596C117.497 30.5947 117.083 31.0984 116.611 31.5705C116.149 32.0322 115.614 32.4362 115.005 32.7824C114.407 33.1182 113.73 33.3857 112.975 33.5851C112.23 33.7844 111.396 33.8841 110.473 33.8841C109.266 33.8841 108.18 33.6848 107.215 33.2861C106.249 32.8873 105.426 32.3312 104.744 31.6177C104.072 30.8938 103.558 30.0386 103.201 29.0523C102.845 28.066 102.666 26.9853 102.666 25.8102C102.666 24.5301 102.865 23.3602 103.264 22.3004C103.673 21.2407 104.245 20.3279 104.98 19.5619C105.714 18.796 106.59 18.2031 107.608 17.7834C108.636 17.3637 109.764 17.1539 110.992 17.1539C112.136 17.1539 113.153 17.3427 114.045 17.7205C114.937 18.0877 115.687 18.5966 116.296 19.2471C116.915 19.8872 117.382 20.6426 117.697 21.5135C118.022 22.3844 118.184 23.313 118.184 24.2993H107.876V24.6455C107.876 25.6633 107.939 26.6653 108.065 27.6516C108.201 28.6379 108.437 29.5193 108.773 30.2957C109.109 31.0721 109.565 31.6964 110.142 32.1686C110.73 32.6408 111.475 32.8768 112.377 32.8768ZM110.724 17.6418C110.284 17.6418 109.89 17.7887 109.544 18.0825C109.208 18.3763 108.92 18.7907 108.678 19.3258C108.447 19.8609 108.264 20.5115 108.127 21.2774C108.002 22.0434 107.923 22.8985 107.891 23.8428H113.18C113.18 21.8388 112.985 20.3069 112.597 19.2471C112.22 18.1769 111.595 17.6418 110.724 17.6418Z" fill="white"/>
<path d="M129.06 10.8741H134.537V33.05H143.603V33.5221H129.06V10.8741Z" fill="white"/>
<path d="M152.605 32.8768C153.214 32.8768 153.77 32.7877 154.273 32.6093C154.777 32.4204 155.239 32.1843 155.658 31.901C156.089 31.6073 156.472 31.2767 156.807 30.9095C157.154 30.5423 157.463 30.175 157.736 29.8078L158.082 30.0596C157.725 30.5947 157.311 31.0984 156.839 31.5705C156.377 32.0322 155.842 32.4362 155.233 32.7824C154.635 33.1182 153.959 33.3857 153.203 33.5851C152.458 33.7844 151.624 33.8841 150.701 33.8841C149.494 33.8841 148.408 33.6848 147.443 33.2861C146.477 32.8873 145.654 32.3312 144.972 31.6177C144.3 30.8938 143.786 30.0386 143.429 29.0523C143.073 28.066 142.894 26.9853 142.894 25.8102C142.894 24.5301 143.094 23.3602 143.492 22.3004C143.902 21.2407 144.473 20.3279 145.208 19.5619C145.942 18.796 146.818 18.2031 147.836 17.7834C148.864 17.3637 149.992 17.1539 151.22 17.1539C152.364 17.1539 153.381 17.3427 154.273 17.7205C155.165 18.0877 155.915 18.5966 156.524 19.2471C157.143 19.8872 157.61 20.6426 157.925 21.5135C158.25 22.3844 158.413 23.313 158.413 24.2993H148.104V24.6455C148.104 25.6633 148.167 26.6653 148.293 27.6516C148.429 28.6379 148.665 29.5193 149.001 30.2957C149.337 31.0721 149.793 31.6964 150.37 32.1686C150.958 32.6408 151.703 32.8768 152.605 32.8768ZM150.952 17.6418C150.512 17.6418 150.118 17.7887 149.772 18.0825C149.436 18.3763 149.148 18.7907 148.906 19.3258C148.676 19.8609 148.492 20.5115 148.356 21.2774C148.23 22.0434 148.151 22.8985 148.12 23.8428H153.408C153.408 21.8388 153.214 20.3069 152.825 19.2471C152.448 18.1769 151.823 17.6418 150.952 17.6418Z" fill="white"/>
<path d="M170.988 30.28C171.953 30.28 172.829 30.3744 173.616 30.5633C174.414 30.7416 175.096 31.0197 175.662 31.3974C176.229 31.7751 176.67 32.2578 176.984 32.8454C177.299 33.4225 177.456 34.1045 177.456 34.8914C177.456 35.7098 177.241 36.4495 176.811 37.1106C176.381 37.7821 175.757 38.3539 174.938 38.8261C174.12 39.2982 173.118 39.6602 171.932 39.912C170.757 40.1639 169.424 40.2898 167.935 40.2898C166.77 40.2898 165.731 40.1796 164.818 39.9593C163.916 39.7389 163.129 39.4346 162.457 39.0464C161.796 38.6582 161.24 38.1913 160.789 37.6457C160.338 37.1106 159.976 36.523 159.703 35.8829C160.301 35.6311 160.889 35.3688 161.466 35.096C162.054 34.8337 162.646 34.5714 163.244 34.3091C162.395 34.0363 161.749 33.6375 161.309 33.1129C160.868 32.5883 160.648 31.8958 160.648 31.0354C160.648 30.5633 160.731 30.1488 160.899 29.7921C161.078 29.4248 161.309 29.0943 161.592 28.8005C161.875 28.4962 162.195 28.2234 162.552 27.9821C162.919 27.7303 163.292 27.489 163.669 27.2581C162.746 26.7965 161.996 26.1826 161.419 25.4167C160.852 24.6403 160.569 23.7064 160.569 22.6152C160.569 21.7443 160.773 20.9731 161.183 20.3016C161.602 19.6196 162.153 19.0478 162.835 18.5861C163.517 18.1139 164.304 17.7572 165.196 17.5159C166.098 17.2641 167.027 17.1381 167.982 17.1381C168.895 17.1381 169.771 17.2536 170.61 17.4844C171.46 17.7152 172.226 18.051 172.908 18.4917L176.559 16.304L176.843 16.6975L173.27 18.7435C173.92 19.2261 174.435 19.798 174.812 20.459C175.201 21.1095 175.395 21.844 175.395 22.6624C175.395 23.4599 175.216 24.1996 174.86 24.8816C174.503 25.5531 173.999 26.1354 173.349 26.6286C172.709 27.1112 171.932 27.489 171.019 27.7618C170.106 28.0346 169.099 28.171 167.997 28.171C167.305 28.171 166.628 28.1133 165.967 27.9978C165.317 27.8824 164.703 27.7041 164.126 27.4627C163.801 27.6621 163.501 27.8772 163.229 28.108C162.956 28.3284 162.819 28.5907 162.819 28.895C162.819 29.1782 162.903 29.4091 163.071 29.5875C163.25 29.7658 163.491 29.9075 163.795 30.0124C164.1 30.1173 164.451 30.1908 164.85 30.2327C165.259 30.2642 165.694 30.28 166.156 30.28H170.988ZM167.982 17.5946C167.174 17.5946 166.581 18.03 166.203 18.9009C165.826 19.7613 165.637 21.0151 165.637 22.6624C165.637 24.3097 165.815 25.5636 166.172 26.424C166.529 27.2739 167.137 27.6988 167.997 27.6988C168.847 27.6988 169.445 27.2739 169.792 26.424C170.148 25.5741 170.327 24.3202 170.327 22.6624C170.327 21.0046 170.143 19.7455 169.776 18.8851C169.409 18.0248 168.811 17.5946 167.982 17.5946ZM168.659 39.8176C170.484 39.7966 171.869 39.5291 172.814 39.0149C173.758 38.5113 174.23 37.7663 174.23 36.78C174.23 36.4023 174.13 36.0823 173.931 35.82C173.742 35.5682 173.48 35.3636 173.144 35.2062C172.808 35.0488 172.415 34.9386 171.964 34.8757C171.523 34.8127 171.051 34.7812 170.547 34.7812L166.424 34.7655C165.93 34.7445 165.469 34.7078 165.039 34.6553C164.608 34.6133 164.21 34.5504 163.842 34.4665C163.286 34.7602 162.725 35.033 162.158 35.2849C161.592 35.5367 161.03 35.8147 160.474 36.119C160.81 36.801 161.24 37.3781 161.765 37.8503C162.29 38.3224 162.888 38.7054 163.559 38.9992C164.241 39.293 164.976 39.5028 165.763 39.6287C166.56 39.7547 167.389 39.8176 168.249 39.8176H168.659Z" fill="white"/>
<path d="M185.153 17.1539C186.496 17.1539 187.634 17.2955 188.568 17.5788C189.502 17.8516 190.263 18.2556 190.85 18.7907C191.438 19.3258 191.863 19.9868 192.125 20.7738C192.387 21.5607 192.518 22.4578 192.518 23.4651V33.5221H191.763L188.269 30.0124L188.206 30.0911C187.409 31.4236 186.522 32.3942 185.546 33.0028C184.581 33.6008 183.542 33.8999 182.43 33.8999C181.863 33.8999 181.318 33.8212 180.793 33.6638C180.279 33.5064 179.817 33.2703 179.408 32.9555C179.009 32.6303 178.689 32.2316 178.448 31.7594C178.217 31.2767 178.102 30.7206 178.102 30.0911C178.102 29.2412 178.296 28.5015 178.684 27.8719C179.072 27.2424 179.649 26.7073 180.415 26.2666C181.192 25.8154 182.157 25.4534 183.311 25.1806C184.465 24.8973 185.814 24.6875 187.356 24.5511V22.7883C187.356 22.1693 187.314 21.5555 187.23 20.9469C187.146 20.3279 186.989 19.777 186.758 19.2943C186.527 18.8117 186.207 18.4235 185.798 18.1297C185.389 17.8254 184.854 17.6733 184.193 17.6733C183.741 17.6733 183.269 17.7257 182.776 17.8306C182.293 17.9356 181.827 18.072 181.375 18.2399C180.935 18.4077 180.526 18.5913 180.148 18.7907C179.781 18.9901 179.476 19.1842 179.235 19.373L179.03 18.9481C179.817 18.413 180.725 17.9828 181.753 17.6575C182.781 17.3218 183.915 17.1539 185.153 17.1539ZM185.105 31.8224C185.599 31.8224 186.029 31.6912 186.396 31.4289C186.763 31.1666 187.083 30.8675 187.356 30.5318V24.9603C186.685 25.0127 186.071 25.1701 185.515 25.4324C184.959 25.6843 184.476 26.0043 184.067 26.3925C183.668 26.7807 183.358 27.2214 183.138 27.7146C182.918 28.2077 182.808 28.7218 182.808 29.2569C182.808 29.6242 182.855 29.9652 182.949 30.28C183.054 30.5947 183.201 30.8675 183.39 31.0984C183.589 31.3187 183.831 31.4971 184.114 31.6335C184.408 31.7594 184.738 31.8224 185.105 31.8224Z" fill="white"/>
<path d="M196.028 9.70947H201.175V33.5221H196.028V9.70947Z" fill="white"/>
<path d="M240.159 10.8741L232.306 33.5221H229.977L225.239 19.5147L220.344 33.5221H218.094L210.287 10.8741L216.363 10.8427L221.84 28.0451L224.987 18.7907L224.861 18.3972L222.28 10.8741H228.308L233.754 28.0451L239.672 10.8741H240.159Z" fill="white"/>
<path d="M245.526 17.1539C246.869 17.1539 248.008 17.2955 248.942 17.5788C249.875 17.8516 250.636 18.2556 251.224 18.7907C251.811 19.3258 252.236 19.9868 252.499 20.7738C252.761 21.5607 252.892 22.4578 252.892 23.4651V33.5221H252.137L248.643 30.0124L248.58 30.0911C247.782 31.4236 246.896 32.3942 245.92 33.0028C244.955 33.6008 243.916 33.8999 242.804 33.8999C242.237 33.8999 241.691 33.8212 241.167 33.6638C240.653 33.5064 240.191 33.2703 239.782 32.9555C239.383 32.6303 239.063 32.2316 238.822 31.7594C238.591 31.2767 238.475 30.7206 238.475 30.0911C238.475 29.2412 238.67 28.5015 239.058 27.8719C239.446 27.2424 240.023 26.7073 240.789 26.2666C241.565 25.8154 242.531 25.4534 243.685 25.1806C244.839 24.8973 246.187 24.6875 247.73 24.5511V22.7883C247.73 22.1693 247.688 21.5555 247.604 20.9469C247.52 20.3279 247.363 19.777 247.132 19.2943C246.901 18.8117 246.581 18.4235 246.172 18.1297C245.762 17.8254 245.227 17.6733 244.566 17.6733C244.115 17.6733 243.643 17.7257 243.15 17.8306C242.667 17.9356 242.2 18.072 241.749 18.2399C241.308 18.4077 240.899 18.5913 240.521 18.7907C240.154 18.9901 239.85 19.1842 239.609 19.373L239.404 18.9481C240.191 18.413 241.099 17.9828 242.127 17.6575C243.155 17.3218 244.288 17.1539 245.526 17.1539ZM245.479 31.8224C245.972 31.8224 246.402 31.6912 246.77 31.4289C247.137 31.1666 247.457 30.8675 247.73 30.5318V24.9603C247.058 25.0127 246.444 25.1701 245.888 25.4324C245.332 25.6843 244.85 26.0043 244.44 26.3925C244.042 26.7807 243.732 27.2214 243.512 27.7146C243.291 28.2077 243.181 28.7218 243.181 29.2569C243.181 29.6242 243.229 29.9652 243.323 30.28C243.428 30.5947 243.575 30.8675 243.764 31.0984C243.963 31.3187 244.204 31.4971 244.488 31.6335C244.781 31.7594 245.112 31.8224 245.479 31.8224Z" fill="white"/>
<path d="M270 17.5316L263.122 33.5221L261.895 36.2921C261.58 36.9846 261.234 37.6037 260.856 38.1493C260.478 38.7054 260.09 39.1933 259.691 39.613C259.292 40.0432 258.904 40.4052 258.527 40.699C258.149 41.0033 257.803 41.2498 257.488 41.4387L257.22 41.0295C257.566 40.8406 257.928 40.5993 258.306 40.3055C258.684 40.0117 259.051 39.6707 259.408 39.2825C259.775 38.8943 260.121 38.4693 260.447 38.0077C260.772 37.546 261.05 37.0528 261.281 36.5282L262.131 34.5766L261.69 33.5221L254.734 17.5316H260.62L264.271 27.0535L264.822 28.5487L266.821 24.0002L269.481 17.5316H270Z" fill="white"/>
<path d="M10.0886 12.8666L0 42.5474H20.6096L13.5475 19.4461L11.9622 23.3937L17.0065 39.6232H3.74719L12.2504 14.4749L21.7625 10.1795V14.6211L24.5009 13.159V8.94294L35.8866 3.80148L44.2457 30.2657H29.6893L35.8866 11.8431L34.4453 8.33402L25.798 32.8975H47.7046L37.4719 0L24.5009 6.14086V0H21.7625V7.45676L10.0886 12.8666Z" fill="#CCA776"/>
<path d="M26.0862 39.6232V42.5474H47.7046V39.6232H26.0862Z" fill="#CCA776"/>
</svg>
