<svg width="31.000000" height="27.000000" viewBox="0 0 31 27" fill="none" xmlns="http://www.w3.org/2000/svg" xmlns:xlink="http://www.w3.org/1999/xlink">
	<desc>
			Created with Pixso.
	</desc>
	<defs/>
	<path id="Vector" d="M10.09 12.27L5.79 12.27C5.28 12.27 4.84 12.09 4.49 11.73C4.13 11.37 3.95 10.94 3.95 10.43L3.95 9.81C3.95 8.46 4.43 7.3 5.39 6.34C6.35 5.38 7.5 4.9 8.86 4.9L10.09 4.9C10.42 4.9 10.71 4.78 10.95 4.54C11.19 4.3 11.31 4.01 11.31 3.68L11.31 1.22C11.31 0.89 11.19 0.6 10.95 0.36C10.71 0.12 10.42 0 10.09 0L8.86 0C7.53 0 6.26 0.25 5.05 0.77C3.84 1.29 2.8 1.99 1.92 2.87C1.03 3.75 0.33 4.8 -0.18 6.01C-0.7 7.21 -0.96 8.48 -0.96 9.81L-0.96 23.31C-0.96 24.34 -0.6 25.21 0.11 25.92C0.83 26.64 1.7 27 2.72 27L10.09 27C11.11 27 11.98 26.64 12.69 25.92C13.41 25.21 13.77 24.34 13.77 23.31L13.77 15.95C13.77 14.93 13.41 14.06 12.69 13.34C11.98 12.63 11.11 12.27 10.09 12.27Z" fill="#CCA876" fill-opacity="1.000000" fill-rule="nonzero"/>
	<path id="Vector" d="M29.88 13.34C29.16 12.63 28.29 12.27 27.27 12.27L22.97 12.27C22.46 12.27 22.03 12.09 21.67 11.73C21.31 11.37 21.13 10.94 21.13 10.43L21.13 9.81C21.13 8.46 21.61 7.3 22.57 6.34C23.53 5.38 24.69 4.9 26.04 4.9L27.27 4.9C27.6 4.9 27.89 4.78 28.13 4.54C28.37 4.3 28.5 4.01 28.5 3.68L28.5 1.22C28.5 0.89 28.37 0.6 28.13 0.36C27.89 0.12 27.6 0 27.27 0L26.04 0C24.71 0 23.44 0.25 22.23 0.77C21.03 1.29 19.98 1.99 19.1 2.87C18.22 3.75 17.52 4.8 17 6.01C16.48 7.21 16.22 8.48 16.22 9.81L16.22 23.31C16.22 24.34 16.58 25.21 17.3 25.92C18.01 26.64 18.88 27 19.9 27L27.27 27C28.29 27 29.16 26.64 29.88 25.92C30.59 25.21 30.95 24.34 30.95 23.31L30.95 15.95C30.95 14.93 30.59 14.06 29.88 13.34Z" fill="#CCA876" fill-opacity="1.000000" fill-rule="nonzero"/>
</svg>
